<svg xmlns="http://www.w3.org/2000/svg" width="88" height="66" viewBox="0 0 88 66"><g transform="translate(-72 -34)"><rect width="88" height="66" rx="10" transform="translate(72 34)" fill="#fff"/><g transform="translate(-145 -195)"><path d="M27.608-40.6H20.88c-9.744,0-19.14,8-19.14,20.3S11.136,0,20.88,0h6.728V-8.12H21.344c-5.916,0-10.556-6.438-10.556-12.18s4.64-12.18,10.556-12.18h6.264Z" transform="translate(257.092 283.392)" fill="red"/></g><g transform="translate(-145 -195)"><path d="M28.084,18.3H21.24c-9.912,0-19.47-8.142-19.47-20.65S11.328-23,21.24-23h6.844v8.26H21.712c-6.018,0-10.738,6.549-10.738,12.39s4.72,12.39,10.738,12.39h6.372Z" transform="translate(269.617 260.842) rotate(180)" fill="#ff7c20"/></g><circle cx="4.5" cy="4.5" r="4.5" transform="translate(130 63)" fill="red"/><circle cx="4.5" cy="4.5" r="4.5" transform="translate(97 63)" fill="#ff7c20"/></g></svg>